<svg xmlns="http://www.w3.org/2000/svg" xmlns:xlink="http://www.w3.org/1999/xlink" width="976.764" height="907.138" viewBox="0 0 976.764 907.138">
  <defs>
    <clipPath id="clip-path">
      <path id="Path_1" data-name="Path 1" d="M335.723,0c178.044,0,140,184.925,322.378,322.378S513.767,644.756,335.723,644.756s-65-171.766-322.378-322.378S157.678,0,335.723,0Z" transform="matrix(0.914, 0.407, -0.407, 0.914, 1350.259, 93.475)" fill="#fff" stroke="#707070" stroke-width="1"/>
    </clipPath>
    <linearGradient id="linear-gradient" x1="0.5" y1="1.003" x2="0.5" y2="0.005" gradientUnits="objectBoundingBox">
      <stop offset="0" stop-color="#844e35" stop-opacity="0.8"/>
      <stop offset="0.7" stop-color="#652e15"/>
    </linearGradient>
    <linearGradient id="linear-gradient-2" x1="0.493" y1="0.694" x2="0.493" y2="-0.27" gradientUnits="objectBoundingBox">
      <stop offset="0.1" stop-color="#8b573f"/>
      <stop offset="1" stop-color="#844e35"/>
    </linearGradient>
    <radialGradient id="radial-gradient" cx="0.464" cy="0.477" r="1.374" gradientTransform="matrix(-0.44, 0.104, 0.046, 0.995, 3.881, -0.28)" gradientUnits="objectBoundingBox">
      <stop offset="0" stop-color="#fff"/>
      <stop offset="0.315" stop-color="#fcfdfd"/>
      <stop offset="0.504" stop-color="#f4f7f8"/>
      <stop offset="0.66" stop-color="#e5ecef"/>
      <stop offset="0.76" stop-color="#d8e2e7"/>
    </radialGradient>
    <radialGradient id="radial-gradient-2" cx="0.499" cy="0.5" r="0.497" gradientTransform="matrix(0.974, -0.247, 0.249, 0.969, 11.108, -14.828)" gradientUnits="objectBoundingBox">
      <stop offset="0" stop-color="#fff"/>
      <stop offset="1" stop-color="#fff" stop-opacity="0"/>
    </radialGradient>
    <radialGradient id="radial-gradient-3" cx="0.487" cy="0.499" r="0.497" gradientTransform="matrix(1.006, 0.011, -0.011, 1, -0.206, 0.608)" xlink:href="#radial-gradient-2"/>
    <linearGradient id="linear-gradient-3" x1="26.728" y1="0.86" x2="27.205" y2="0.291" gradientTransform="matrix(1, 0, 0, 1, 0, 0)" xlink:href="#radial-gradient-2"/>
    <linearGradient id="linear-gradient-4" x1="21.685" y1="0.207" x2="21.383" y2="0.641" gradientTransform="matrix(1, 0, 0, 1, 0, 0)" xlink:href="#radial-gradient-2"/>
    <linearGradient id="linear-gradient-5" x1="11.261" y1="0.178" x2="10.911" y2="0.655" gradientTransform="matrix(1, 0, 0, 1, 0, 0)" xlink:href="#radial-gradient-2"/>
    <radialGradient id="radial-gradient-4" cx="0.502" cy="0.48" fx="0.8511989712715149" fy="0.4816111922264099" r="0.623" gradientTransform="matrix(0.795, 0.021, 0.013, -0.8, 0.376, 0.826)" gradientUnits="objectBoundingBox">
      <stop offset="0" stop-color="#844e35"/>
      <stop offset="0.7" stop-color="#844e35" stop-opacity="0.302"/>
      <stop offset="1" stop-color="#93614a" stop-opacity="0"/>
    </radialGradient>
    <radialGradient id="radial-gradient-5" cx="0.316" cy="2.878" r="2.774" gradientTransform="translate(0.162) scale(0.443 1)" gradientUnits="objectBoundingBox">
      <stop offset="0.95" stop-opacity="0"/>
      <stop offset="1" stop-opacity="0.2"/>
    </radialGradient>
    <radialGradient id="radial-gradient-6" cx="0.536" cy="0.477" r="1.374" gradientTransform="matrix(0.44, 0.104, -0.046, 0.995, 0.372, -0.063)" gradientUnits="objectBoundingBox">
      <stop offset="0" stop-color="#fff"/>
      <stop offset="0.316" stop-color="#fcfdfd"/>
      <stop offset="0.505" stop-color="#f4f7f8"/>
      <stop offset="0.661" stop-color="#e5ecef"/>
      <stop offset="0.76" stop-color="#d8e2e7"/>
    </radialGradient>
    <radialGradient id="radial-gradient-7" cx="0.499" cy="0.5" r="0.497" gradientTransform="matrix(0.974, -0.247, 0.249, 0.969, 10.994, -15.913)" xlink:href="#radial-gradient-2"/>
    <radialGradient id="radial-gradient-8" cx="0.487" cy="0.499" r="0.497" gradientTransform="matrix(1.007, 0.011, -0.011, 1, -0.172, 0.657)" xlink:href="#radial-gradient-2"/>
    <linearGradient id="linear-gradient-6" x1="0.197" y1="0.86" x2="0.675" y2="0.291" gradientTransform="matrix(1, 0, 0, 1, 0, 0)" xlink:href="#radial-gradient-2"/>
    <linearGradient id="linear-gradient-7" x1="0.704" y1="0.207" x2="0.402" y2="0.641" gradientTransform="matrix(1, 0, 0, 1, 0, 0)" xlink:href="#radial-gradient-2"/>
    <linearGradient id="linear-gradient-8" x1="0.736" y1="0.178" x2="0.386" y2="0.655" gradientTransform="matrix(1, 0, 0, 1, 0, 0)" xlink:href="#radial-gradient-2"/>
    <radialGradient id="radial-gradient-9" cx="0.498" cy="0.48" fx="0.846215546131134" fy="0.4816112220287323" r="0.623" gradientTransform="matrix(-0.795, 0.021, -0.013, -0.8, 0.899, 0.854)" xlink:href="#radial-gradient-4"/>
    <radialGradient id="radial-gradient-10" cx="0.684" cy="2.878" r="2.774" gradientTransform="matrix(-0.443, 0, 0, 1, -2.537, 0)" xlink:href="#radial-gradient-5"/>
    <radialGradient id="radial-gradient-11" cx="0.5" cy="0.5" r="0.5" gradientTransform="translate(0)" gradientUnits="objectBoundingBox">
      <stop offset="0" stop-color="#a27662" stop-opacity="0.502"/>
      <stop offset="0.9" stop-color="#93614a" stop-opacity="0"/>
    </radialGradient>
    <radialGradient id="radial-gradient-12" cx="0.5" cy="0.5" r="0.493" gradientTransform="matrix(1, 0, 0, 1, 0, 0)" xlink:href="#radial-gradient-11"/>
  </defs>
  <g id="Mask_Group_1" data-name="Mask Group 1" transform="translate(-1023.708 -64.845)" clip-path="url(#clip-path)">
    <g id="svga-group-wrapper" transform="translate(1232.575 254.137)">
      <g id="svga-group-backs-single">
        <path id="SvgjsPath4224" d="M651.783,651.783H-72.42V-72.42h724.2Z" fill="#fff"/>
      </g>
      <g id="svga-group-humanwrap-move">
        <g id="svga-group-humanwrap">
          <g id="svga-group-hair-back-move">
            <g id="svga-group-hair-back">
              <path id="SvgjsPath4115" d="M291.13,291.13h-2.9v-2.9h2.9Z" fill="#2a232b"/>
            </g>
          </g>
          <g id="svga-group-humanbody-single">
            <path id="SvgjsPath2911" d="M566.087,578.72c-6.361-13.748-23.739-34.122-43.047-39.75-23.867-6.961-77.742-15.376-97.718-20.055-16.014-3.754-48.267-32.717-59.57-42.438a12.235,12.235,0,0,1-3.728-8c-.4-31.471,12.152-115.073,12.152-115.073H205.19s12.555,83.6,12.146,115.073a12.215,12.215,0,0,1-3.722,8c-11.3,9.722-43.557,38.684-59.57,42.438-19.979,4.678-73.854,13.38-97.718,20.341-19.313,5.626-36.685,25.712-43.047,39.46C2.538,601.915,0,643.9,0,680.106H579.363C579.363,643.9,576.823,601.918,566.087,578.72Z" fill="#93614a"/>
            <path id="SvgjsPath2912" d="M461.046,533.182c70.514,10.26,100.189,25.225,109.482,146.929h8.835c0-36.21-2.541-78.191-13.276-101.389-6.361-13.748-23.739-34.122-43.047-39.75-23.867-6.961-77.742-15.376-97.718-20.055-16.014-3.754-52.844-34.962-62.7-47.363,9.733,13.627,37.053,45.2,60.99,53.475C435.067,528.987,444.6,530.789,461.046,533.182Zm-305.3-8.152c23.936-8.268,51.253-39.849,60.99-53.475-9.849,12.4-46.679,43.609-62.7,47.363C134.068,523.6,80.193,532.3,56.326,539.26c-19.307,5.626-36.685,25.712-43.047,39.46C2.543,601.918,0,643.9,0,680.108H8.838c9.235-120.925,39.035-136.68,109.482-146.929C134.76,530.789,144.3,528.987,155.75,525.03Z" fill="#a27662"/>
            <path id="SvgjsPath2913" d="M277.069,572.469s-14.7-4.661-20.518-6.891c-30.269-11.613-128.6-19.139-128.6-19.139s103.573,4.111,126.429,8.05c-1.327-13.809-8.74-57.948-8.74-57.948s14.916,48.71,18.566,61C266.154,564.108,277.069,572.469,277.069,572.469Zm31.283-3.888c-.258.211-.553.487-.875.776A6.57,6.57,0,0,0,308.351,568.581Zm-31.283,3.888s8.38,8.667,12.592,8.777c5.533.148,13.986-8.4,17.818-11.889-3.664,2.772-12.048,4.03-15.382,4.16C288.245,573.665,277.069,572.469,277.069,572.469Zm60.885-21.781c-4.476.718-12.705,2.286-12.705,2.286l6.625-43.134c-1.871,8.9-12.96,46.96-23.522,58.742,5.533-4.681,17.839-6.926,24.113-7.833,29.652-4.3,29.64-4.3,118.949-14.31C451.414,546.438,367.2,545.989,337.954,550.687Z" fill="#844e35"/>
            <path id="SvgjsPath2914" d="M581.536,682.278H-2.173v-2.173c0-48.565,4.535-82.984,13.48-102.3a71.459,71.459,0,0,1,6.905-11.535A94.541,94.541,0,0,1,28.42,554.393c6.092-6,15.773-13.866,27.3-17.223,14.956-4.363,41.14-9.314,64.242-13.682,14-2.647,26.092-4.934,33.589-6.689,6-1.407,15.334-6.89,27.742-16.3,10.488-7.953,20.735-16.848,27.516-22.735,1.292-1.122,2.409-2.091,3.391-2.936a10.052,10.052,0,0,0,2.967-6.374c.092-7.105-.485-17.545-1.716-31.03-.988-10.825-2.4-23.612-4.186-38.006-3.049-24.524-6.189-45.48-6.22-45.689l-.375-2.5H376.7l-.375,2.5c-.031.209-3.171,21.166-6.221,45.69-1.79,14.394-3.2,27.181-4.188,38.006-1.232,13.484-1.81,23.922-1.72,31.025a10.086,10.086,0,0,0,2.97,6.376c.985.847,2.1,1.816,3.394,2.938,6.781,5.887,17.028,14.782,27.516,22.735,12.408,9.409,21.742,14.892,27.743,16.3,7.6,1.779,20.493,4.17,34.149,6.7,22.895,4.244,48.844,9.055,63.682,13.383,11.5,3.353,21.2,11.3,27.3,17.376a95.9,95.9,0,0,1,10.206,11.973,72.835,72.835,0,0,1,6.9,11.575c8.943,19.323,13.477,53.741,13.477,102.3ZM2.176,677.933H577.187a507.2,507.2,0,0,0-2.6-53.161c-2.163-19.606-5.688-34.793-10.476-45.14-3.3-7.13-9.366-15.463-16.229-22.292-5.748-5.72-14.83-13.187-25.454-16.284-14.628-4.266-40.463-9.056-63.258-13.282-14.3-2.651-26.653-4.941-34.348-6.743-3.675-.862-8.154-2.9-13.694-6.241a183.435,183.435,0,0,1-15.683-10.827c-10.6-8.04-20.915-16.992-27.739-22.916-1.288-1.118-2.4-2.084-3.376-2.923a13.151,13.151,0,0,1-3.163-4.38,13.328,13.328,0,0,1-1.321-5.23v-.005c-.093-7.253.492-17.846,1.738-31.482.993-10.873,2.408-23.709,4.2-38.152,2.444-19.65,4.945-37.014,5.866-43.294H207.708c.921,6.28,3.422,23.644,5.865,43.293,1.8,14.442,3.209,27.278,4.2,38.152,1.245,13.637,1.828,24.23,1.734,31.484a14.349,14.349,0,0,1-4.479,9.615c-.975.838-2.087,1.8-3.376,2.923-6.824,5.924-17.136,14.877-27.739,22.916a183.448,183.448,0,0,1-15.683,10.827c-5.539,3.338-10.018,5.379-13.693,6.24-7.589,1.777-19.723,4.071-33.773,6.728-23,4.35-49.079,9.28-63.833,13.584a51.008,51.008,0,0,0-13.4,6.341,77.525,77.525,0,0,0-12.06,9.8,90.2,90.2,0,0,0-9.738,11.328,67.086,67.086,0,0,0-6.482,10.813c-4.791,10.347-8.317,25.534-10.48,45.14A507.26,507.26,0,0,0,2.176,677.933Z" fill="#652e15"/>
          </g>
          <g id="svga-group-chinshadow-single">
            <path id="SvgjsPath3451" d="M218.759,472.331c20.217,13.152,47.238,25.533,70.929,25.533,22.676,0,50.245-12.482,70.85-25.692a12.189,12.189,0,0,1-.692-3.662c-.365-28.612,9.69-98.553,11.807-112.927H207.71c2.115,14.377,12.172,84.315,11.8,112.924A12.171,12.171,0,0,1,218.759,472.331Z" fill="url(#linear-gradient)"/>
          </g>
          <g id="svga-group-clothes-single">
            <path id="SvgjsPath4212" d="M-10.666,684.2c-8.441-70.372,23.238-136.411,99.929-158.2,22.508-6.4,16.486-9.678,19.892-9.878a6.638,6.638,0,0,1-.13-1.825h-.1c.252-23.261,26.152-18.693,33.565-20.231,29.319-6.251,39.275-37.039,72.753-28.925.823,7.06.217,15.2-3.972,45.373,31.572,67.977,65.821,62.1,78,100.146,11.051-34.026,50.228-39.446,79.1-100.16-1.9-17.045-6.034-31.961-4.293-46.161l.165-.122c22.433-7.482,32.233,2.532,41.164,11.164,27.221,26.312,41.662,9.632,55.286,21.6,5.42,4.806,7.378,11.579,7.378,18.881,62.027,9.009,133.178,28.673,119.027,166.512l.278.3C524.6,682.684,166.7,698.408-10.666,684.2Z" fill="#386e77"/>
            <path id="SvgjsPath4213" d="M290.458,607.419c12.251-30.816,49.089-38.041,76.89-94.885a26.149,26.149,0,0,0,1.9-3.583c-.475-5.29-1.078-10.854-3.514-16.677-1.512-9.7-2.72-18.8-1.7-27.621,5.718,1.674,11.13,3.656,14.832,7.706,5.452,5.944,1.318,16.248-3.9,26.193C365.181,541.253,340.648,572.1,290.458,607.419Zm199.921-31.361c8.511,30.057,14.18,78.005,7.37,108.471,5.684-.13,7.781-.281,13.053-.4C513.159,652.131,507.389,601.031,490.379,576.058Zm-91.765,5.434C361.52,603.16,324.2,611.5,290.5,640.271c-33.719-28.69-71.4-33.71-108.494-55.352-17-6.836-43.087-30.993-59.028-48.006,50.153,76.14,86.053,54.527,166.376,105.844,80.346-51.317,116.466-33.87,166.613-110C440.026,549.763,415.623,574.7,398.613,581.492Zm-109.482,29.55c-12.277-30.834-47.679-41.665-75.479-98.509a28.6,28.6,0,0,1-1.889-3.583c.452-5.29-.759-11.127,1.7-16.967,1.509-9.728,2.167-17.647,1.138-26.454-5.7,1.663-8.763,2.778-12.465,6.828-5.446,5.944-1.312,16.248,3.9,26.193C215.819,541.253,238.926,575.713,289.131,611.043ZM78.686,572.666c-12.471,27.218-12.572,79.465-10.22,111.467,5.275.119,7.381.269,13.053.4C74.712,654.063,76.415,603.291,78.686,572.666Zm210.671,44.252c47.476-14.22,97.95-40.248,139.931-103.842-37.9,51.109-94.219,81.293-138.833,99.81C244.425,596.194,189.313,563,157.184,518.347,194.831,580.018,241.907,602.7,289.357,616.917Z" fill="#265e68"/>
            <path id="SvgjsPath4214" d="M587.364,682.684l-1.083,0c-1.237-140.829-79.654-146.5-123.057-155.631-6.793,0-10.321-18.844-15.318-23.87-4.25-4.273-36.989-4.273-47.357-32.355,1.689,1.486,3.276,3.047,4.849,4.557,27.221,26.312,41.662,9.632,55.286,21.6,5.42,4.806,7.378,11.579,7.378,18.881,62.027,9.009,133.178,28.673,119.027,166.512Zm-598.859,3.4,1.089,0c13.786-111.91,46.433-147.19,126.136-160.379,10-3.8,4.733-11.037,9.739-16.06,4.25-4.253,27.888-4.345,60.613-38.785-1.686,1.486-8.908,3.018-10.472,4.528-27.224,26.312-47.754,18.858-55.294,21.6-9.3,3.441-10.738,11.668-10.738,18.963-62.032,9.012-127.926,43.377-120.8,169.829Z" fill="#4d7e86"/>
            <path id="SvgjsPath4215" d="M468.386,515.569c0-28.557-26.839-22.87-39.191-25.527-27.256-5.852-26.4-37.415-65.416-26.028-1.663,13.49,1.495,25.312,4.267,46.34-28.612,60.123-68.3,66.9-78.782,99.2C277.8,573.694,242.785,577.3,211.6,510.569c4.339-31.4,4.774-38.684,3.94-45.694-29.753-6.8-36.465,12.514-63.371,25.422-16.329,7.653-20.941.762-34.956,7.627-5.814,2.8-8.743,10.455-8.534,16.706-.038.029,0,.029,0,.029a6.465,6.465,0,0,0,.067,1.147c-3.4.237,1.582.214-21.213,3.9C14.061,531.583-18.519,593.673-10.973,684.552c34.443,0,2.929,12.694,530.543-.223,24.5-.62,66.044-1.295,67.791-1.295C603.467,548.266,535.436,525.969,468.386,515.569ZM-10.5,683.813c7.471-104.3,23.227-144.916,118.9-166.071,52.079,86.438,115.815,73.866,180.275,122.214C230.262,591.373,169.035,597.81,110.172,516.6a16.806,16.806,0,0,1,10.24-17.262c5.2-2.034,10.776-1.443,16.222-1.414,20.53.156,36.343-15.938,51.543-27.746,7.239-4.838,18.018-5.075,26.651-3.743.669,11.222-3.656,28.16-5.1,40.106-3.018-6.648-5.878-13.511-8.734-20.341,36.123,106.093,72.139,82.078,88.24,126.084-3.41-.947-60.874-21.633-106.667-67.171-9.728-9.632-29-30.869-30.463-32.85,56.7,76.795,92.927,80.705,137.283,100.493,0,.029.061.1.061.139.035.1.2.64.249.742a4.618,4.618,0,0,1,.692-.264.327.327,0,0,1,.232-.1c6.147-3.021,46.537-17.1,77.29-38.238,31.653-21.775,67.756-69.005,65.036-65.584-52.876,53.8-61.05,66-142.558,103.329a.416.416,0,0,1-.2-.061,7.6,7.6,0,0,0-.31-1.121,2.8,2.8,0,0,1,.156-.516c14.333-39.336,56.418-24.13,91.279-131.962-3.569,9.316-7.32,18.487-11.526,27.479-1.324-15.8-5.915-28.261-5.4-41.271,6.037-2.007,22.427-2.961,26.964,1.57,18.913,16.182,20.449,28.033,51.262,28.033,9.881.058,22.8,1.3,24.261,19.432-1.816,2.671-15.327,18.629-28.108,31.312C394.039,590.2,354.031,591.058,292.126,638.4c1.509,0,4.649-3.276,5.878-4.108,48.412-34.368,83.194-33.826,127.706-70.245,20.515-16.758,40.257-43.58,42.38-46.992a.5.5,0,0,0,.229.038c81.684,14.058,122.6,44.791,118.086,165.318C220.283,680.123,170.576,689.862-10.5,683.813Z" fill="#0c4049"/>
          </g>
          <g id="svga-group-head">
            <g id="svga-group-ears-left-move">
              <g id="svga-group-ears-left">
                <path id="SvgjsPath3622" d="M136.782,236.1c-2.8-7.2-23.412-17.387-32.473-15.779-10.249,1.816-14.015,12.619-12.656,20.622,3.2,18.792,11.576,26.706,15.342,41.384,3.175,12.378,9.945,19.5,13.291,24.762,4.113,6.454,7.908,21.266,8.757,23.427,1.341,3.418,6.092,11.712,14.49,11.286,9.655-.5,21.856-19.374,22.056-23.566C166.694,295.5,144.067,254.859,136.782,236.1Z" fill="#93614a"/>
                <path id="SvgjsPath3622_-_Outline" data-name="SvgjsPath3622 - Outline" d="M106.413,217.984h0a31.471,31.471,0,0,1,9.166,1.651,60.67,60.67,0,0,1,9.724,4.061c3.388,1.767,11.486,6.437,13.5,11.622,1.826,4.7,4.607,10.747,7.826,17.747,4.762,10.355,10.16,22.091,14.354,33.574,4.937,13.514,7.151,23.886,6.771,31.708-.068,1.419-.891,3.552-2.446,6.335a59.8,59.8,0,0,1-5.515,8.092,44.956,44.956,0,0,1-7.458,7.46c-3.083,2.345-6.009,3.6-8.695,3.743-.245.012-.491.019-.733.019a13.9,13.9,0,0,1-6.347-1.533,17.42,17.42,0,0,1-4.672-3.54,24.713,24.713,0,0,1-4.873-7.608c-.23-.585-.574-1.728-1.094-3.46-1.565-5.2-4.477-14.892-7.473-19.592-.7-1.1-1.558-2.288-2.551-3.663-3.558-4.923-8.431-11.666-11.011-21.727-1.564-6.1-3.955-10.989-6.485-16.17-3.451-7.064-7.02-14.369-8.894-25.39a22.639,22.639,0,0,1-.044-7.027,21.994,21.994,0,0,1,2.236-6.975,17.832,17.832,0,0,1,4.772-5.83,16.614,16.614,0,0,1,7.456-3.294A14.307,14.307,0,0,1,106.413,217.984Zm36.5,121.666c.171,0,.338,0,.511-.013,1.77-.091,3.944-1.081,6.286-2.862a40.6,40.6,0,0,0,6.707-6.73,55.326,55.326,0,0,0,5.1-7.483,14.534,14.534,0,0,0,1.9-4.424,52.2,52.2,0,0,0-1.553-13.749,135.44,135.44,0,0,0-4.96-16.26c-4.134-11.318-9.493-22.969-14.22-33.249-3.249-7.064-6.055-13.166-7.928-17.989a12.8,12.8,0,0,0-3.817-4.422,45.246,45.246,0,0,0-7.644-4.921c-6.172-3.219-12.64-5.219-16.881-5.22h0a9.977,9.977,0,0,0-1.726.136,12.591,12.591,0,0,0-9.135,6.858,18.468,18.468,0,0,0-1.759,11.262c1.769,10.4,5.2,17.422,8.514,24.21,2.515,5.148,5.116,10.472,6.79,17a48.612,48.612,0,0,0,4.735,11.774,84.384,84.384,0,0,0,5.589,8.488c.991,1.371,1.926,2.666,2.7,3.874,3.318,5.207,6.343,15.269,7.969,20.675.436,1.451.813,2.7.977,3.123a20.368,20.368,0,0,0,3.969,6.194A10.773,10.773,0,0,0,142.911,339.65Z" fill="#652e15"/>
                <path id="SvgjsPath3623" d="M138.911,312.74a7.529,7.529,0,0,0-.272-5.857c-1.947-3.543-7.019-10.046-8.172-13.937-.941-3.181-.463-9.98-.617-13.305-.272-5.881-4.322-9.907-5.582-13.282-8.441-22.575-19.675-36.567-26.071-39.472-4.73,11.555-.982,20.008,5.62,37.789-3.983-24.165-.156-31.72-.156-31.72s11.639,10.037,17.384,32.363c1.04,4.029-3.218,12.439-2.4,16.526,1.02,5.133,12.12,15.066,15.229,19.22C136.292,304.3,138.911,312.74,138.911,312.74Z" fill="#652e15"/>
              </g>
            </g>
            <g id="svga-group-ears-right-move">
              <g id="svga-group-ears-right">
                <path id="SvgjsPath3624" d="M441.822,236.1c2.8-7.2,23.412-17.387,32.476-15.779,10.252,1.816,14.015,12.619,12.656,20.622-3.2,18.792-11.576,26.706-15.344,41.384-3.175,12.378-9.948,19.5-13.291,24.762-4.113,6.454-7.908,21.266-8.757,23.427-1.341,3.418-6.095,11.712-14.49,11.286-9.652-.5-21.856-19.374-22.053-23.566C411.907,295.5,434.54,254.859,441.822,236.1Z" fill="#93614a"/>
                <path id="SvgjsPath3624_-_Outline" data-name="SvgjsPath3624 - Outline" d="M472.192,217.984a14.322,14.322,0,0,1,2.486.2,16.616,16.616,0,0,1,7.456,3.294,17.828,17.828,0,0,1,4.772,5.83,21.993,21.993,0,0,1,2.235,6.975,22.644,22.644,0,0,1-.044,7.026c-1.876,11.022-5.445,18.327-8.9,25.392-2.531,5.18-4.921,10.073-6.486,16.169-2.579,10.055-7.45,16.8-11.006,21.718-1,1.377-1.855,2.567-2.555,3.669-3,4.7-5.91,14.39-7.474,19.595-.521,1.732-.864,2.875-1.094,3.461a24.708,24.708,0,0,1-4.874,7.608,17.425,17.425,0,0,1-4.672,3.54A13.894,13.894,0,0,1,435.693,344c-.242,0-.487-.006-.73-.019-2.687-.139-5.612-1.4-8.7-3.743a44.962,44.962,0,0,1-7.457-7.459,59.784,59.784,0,0,1-5.515-8.092c-1.556-2.784-2.378-4.916-2.445-6.338-.382-7.816,1.831-18.186,6.765-31.7,4.193-11.48,9.59-23.214,14.351-33.568,3.222-7.006,6-13.056,7.831-17.76.762-1.961,2.481-4.049,5.11-6.207A49.616,49.616,0,0,1,453.3,223.7a60.663,60.663,0,0,1,9.725-4.061A31.47,31.47,0,0,1,472.192,217.984Zm-36.5,121.666a10.773,10.773,0,0,0,7.877-3.73,20.363,20.363,0,0,0,3.97-6.193c.165-.42.542-1.673.978-3.124,1.625-5.406,4.65-15.468,7.97-20.677.768-1.209,1.706-2.507,2.7-3.881a84.4,84.4,0,0,0,5.587-8.485,48.594,48.594,0,0,0,4.733-11.768c1.675-6.525,4.276-11.848,6.791-17,3.316-6.788,6.746-13.808,8.516-24.213a18.47,18.47,0,0,0-1.758-11.261,12.59,12.59,0,0,0-9.135-6.858,9.993,9.993,0,0,0-1.728-.136c-4.242,0-10.711,2-16.883,5.219a45.243,45.243,0,0,0-7.645,4.921,12.794,12.794,0,0,0-3.817,4.423c-1.874,4.826-4.682,10.932-7.934,18-4.727,10.278-10.085,21.928-14.218,33.243a135.321,135.321,0,0,0-4.957,16.255,52.149,52.149,0,0,0-1.55,13.743,14.479,14.479,0,0,0,1.9,4.427,55.31,55.31,0,0,0,5.1,7.483,40.607,40.607,0,0,0,6.707,6.73c2.342,1.781,4.515,2.771,6.287,2.862C435.355,339.646,435.522,339.65,435.693,339.65Z" fill="#652e15"/>
                <path id="SvgjsPath3625" d="M439.693,312.74a7.515,7.515,0,0,1,.272-5.857c1.947-3.543,7.022-10.046,8.169-13.937.939-3.181.464-9.98.623-13.305.272-5.881,4.316-9.907,5.579-13.282,8.441-22.575,19.678-36.567,26.071-39.472,4.73,11.555.979,20.008-5.617,37.789,3.983-24.165.154-31.72.154-31.72s-11.639,10.037-17.387,32.363c-1.034,4.029,3.218,12.439,2.4,16.526-1.02,5.133-12.12,15.066-15.226,19.22C442.312,304.3,439.693,312.74,439.693,312.74Z" fill="#652e15"/>
              </g>
            </g>
            <g id="svga-group-faceshape-wrap">
              <g id="svga-group-faceshape-single">
                <path id="SvgjsPath3448" d="M289.687,2.512C192.3,2.665,113.213,82.664,113.364,181.225a180.96,180.96,0,0,0,5.8,45.289h0c.035.156,29.805,91.058,37.508,127.619,6.894,32.728,37.54,59.275,51.332,73.741,15.846,16.634,35.651,41.242,81.681,41.025,46.027.217,65.836-24.391,81.682-41.025,13.792-14.467,44.437-41.013,51.332-73.741,7.7-36.561,37.476-127.46,37.505-127.619h.006a180.826,180.826,0,0,0,5.8-45.289C466.164,82.664,387.072,2.665,289.687,2.512Z" fill="#93614a"/>
                <path id="SvgjsPath3449" d="M386.638,32.047c42.305,32.436,69.9,85.418,69.813,145.29a190.612,190.612,0,0,1-5.481,45.289h-.006c-.032.156-28.186,91.053-35.474,127.61-6.521,32.734-35.5,59.275-48.551,73.747-14.985,16.634-33.719,41.242-77.249,41.025-43.533.217-62.267-24.391-77.252-41.025-13.041-14.473-42.027-41.013-48.548-73.747-7.288-36.558-35.443-127.454-35.477-127.61h0a190.632,190.632,0,0,1-5.484-45.289c-.087-59.871,27.511-112.854,69.816-145.287A178.751,178.751,0,0,0,113.37,181.225a180.96,180.96,0,0,0,5.8,45.289h0c.035.156,29.805,91.058,37.508,127.619,6.894,32.728,37.54,59.275,51.332,73.741,15.846,16.634,35.651,41.242,81.681,41.025,46.027.217,65.836-24.391,81.682-41.025,13.792-14.467,44.437-41.013,51.332-73.741,7.7-36.561,37.476-127.46,37.505-127.619h.006a180.826,180.826,0,0,0,5.8-45.289A178.776,178.776,0,0,0,386.638,32.047Z" fill="#8b573f"/>
                <path id="SvgjsPath3450" d="M289.684.339h.007a176.767,176.767,0,0,1,99.851,31.006A180.822,180.822,0,0,1,464.6,144.826a184.031,184.031,0,0,1-2.289,82.235l-.423,1.626h-.1c-7.634,23.553-13.524,42.532-17.126,54.319-10.162,33.257-16.835,57.338-19.834,71.576a83.824,83.824,0,0,1-7.553,20.783,127.725,127.725,0,0,1-11.741,18.482c-8.637,11.459-18.3,21.133-26.067,28.906-2.386,2.389-4.64,4.645-6.524,6.621-1.047,1.1-2.1,2.218-3.208,3.4-3.934,4.192-8,8.526-12.755,12.872a102.843,102.843,0,0,1-16.417,12.423,87.423,87.423,0,0,1-10.1,5.22,88.377,88.377,0,0,1-11.621,4.119,97.691,97.691,0,0,1-13.328,2.7,116.686,116.686,0,0,1-15.221.966h-1.209a116.677,116.677,0,0,1-15.221-.966,97.675,97.675,0,0,1-13.328-2.7,88.376,88.376,0,0,1-11.621-4.12,87.436,87.436,0,0,1-10.1-5.221,102.858,102.858,0,0,1-16.418-12.424c-4.753-4.347-8.821-8.681-12.755-12.873-1.11-1.183-2.159-2.3-3.206-3.4-1.884-1.976-4.138-4.232-6.524-6.621-7.765-7.773-17.43-17.448-26.067-28.906A127.719,127.719,0,0,1,162.1,375.364a83.818,83.818,0,0,1-7.553-20.783c-6.65-31.563-29.725-103.587-36.962-125.894h-.1l-.426-1.626a184.013,184.013,0,0,1-2.288-82.235A180.923,180.923,0,0,1,189.834,31.345a178.385,178.385,0,0,1,30.34-16.7,176.478,176.478,0,0,1,69.51-14.3Zm168.839,224a179.718,179.718,0,0,0,1.82-78.658A176.574,176.574,0,0,0,387.086,34.93a174.04,174.04,0,0,0-29.6-16.293,171.843,171.843,0,0,0-135.6,0,174.033,174.033,0,0,0-29.6,16.293,176.483,176.483,0,0,0-73.256,110.753,179.7,179.7,0,0,0,1.819,78.658h.055l.36,1.605.267.823c7.036,21.671,30.516,94.867,37.268,126.916a79.489,79.489,0,0,0,7.169,19.7,123.383,123.383,0,0,0,11.343,17.846c8.455,11.217,18,20.773,25.671,28.451,2.4,2.407,4.676,4.681,6.6,6.694,1.059,1.112,2.113,2.235,3.229,3.423,7.627,8.126,16.272,17.337,28.247,24.548,13.837,8.332,29.547,12.382,48.029,12.382h1.209c18.482,0,34.192-4.05,48.028-12.38,11.974-7.21,20.618-16.42,28.245-24.546,1.117-1.19,2.172-2.314,3.231-3.426,1.92-2.014,4.191-4.287,6.6-6.695,7.67-7.678,17.216-17.234,25.671-28.451a123.4,123.4,0,0,0,11.343-17.846,79.489,79.489,0,0,0,7.169-19.7c3.026-14.363,9.732-38.571,19.931-71.95,3.618-11.841,9.543-30.928,17.222-54.617.171-.526.3-.938.365-1.128l.3-1.649Z" fill="#652e15"/>
              </g>
            </g>
            <g id="svga-group-mouth-single-move">
              <g id="svga-group-mouth-single">
                <path id="SvgjsPath3523" d="M290.261,414.091c-8.2.417-10.556-7.975-10.556-7.975s11.387,1.637,20.252-1.023C299.959,405.1,297.48,413.729,290.261,414.091Z" fill="url(#linear-gradient-2)"/>
                <path id="SvgjsPath3527" d="M291.1,407.756a81.582,81.582,0,0,1-11.231-.258.721.721,0,0,1-.649-.788.748.748,0,0,1,.794-.649c.119.009,11.865,1.173,19.519-.976a.744.744,0,0,1,.9.5.722.722,0,0,1-.5.892A41.438,41.438,0,0,1,291.1,407.756Z" fill="#652e15"/>
                <path id="SvgjsPath3528" d="M238.987,377.452s36.3,4.3,48.429,4.342c13.189.035,55.856-4.342,55.856-4.342-12.335,10.237-25.906,20.081-56.647,20.275C259.129,397.9,252.084,387.918,238.987,377.452Z" fill="#fff"/>
                <path id="SvgjsPath3529" d="M235.337,375.925l3.778.448c.362.043,36.379,4.3,48.3,4.335h.154c13.158,0,55.165-4.293,55.588-4.337l3.553-.364-2.748,2.281c-6.011,4.989-12.637,10.184-21.687,14.066a73.74,73.74,0,0,1-15.364,4.63,110.7,110.7,0,0,1-20.283,1.83l-.723,0c-23.373,0-32.115-7.437-42.237-16.048-1.711-1.456-3.48-2.961-5.364-4.466Zm50.573,20.718.709,0a110.093,110.093,0,0,0,19.888-1.791,71.6,71.6,0,0,0,14.917-4.492A77.752,77.752,0,0,0,339.8,378.892c-10.523,1.042-41.247,3.989-52.224,3.989h-.161c-9.9-.031-35.305-2.828-44.878-3.923q1.3,1.09,2.546,2.155c4.917,4.184,9.562,8.135,15.678,10.949C267.555,395.187,275.546,396.643,285.91,396.643Z" fill="#652e15"/>
              </g>
            </g>
            <g id="svga-group-eyes-left-move">
              <g id="svga-group-eyes-left">
                <g id="svga-group-eyesback-left">
                  <path id="SvgjsPath3888" d="M178.884,239.054c-1.466-6.619,15.037-11.509,36.821-8.838s36.9,16,34.912,22.723c-1.1,3.725-30.819,9.4-41.288,8.247C198.716,260.012,182.424,255.036,178.884,239.054Z" fill="url(#radial-gradient)"/>
                </g>
                <g id="svga-group-eyesiriswrapper-left" transform="translate(0.724 0.724)">
                  <g id="svga-group-eyesiriscontrol-left">
                    <g id="svga-group-eyesiris-left">
                      <path id="SvgjsPath3942" d="M231.745,243.332a17.381,17.381,0,0,1-34.762,0h0a17.381,17.381,0,1,1,34.762,0Z" fill="#4d3623"/>
                      <path id="SvgjsPath3943" d="M212.418,226.143l-.206.026c.084.391.165.785.246,1.176C212.441,226.948,212.432,226.543,212.418,226.143Zm.038,1.2c.2,5.713.536,10.8,1.5,12.642C214.46,237.968,213.6,232.944,212.455,227.342Zm1.5,12.645c-.125.484-.313.814-.6.924a1.228,1.228,0,0,1-1.066-.3.929.929,0,0,1-1.185,1.321,1.238,1.238,0,0,1,.423,1.023c-.078.3-.388.527-.849.7.461.183.771.408.843.71a1.235,1.235,0,0,1-.42,1.02,1.193,1.193,0,0,1,1.075.238,1.222,1.222,0,0,1,.1,1.1,1.192,1.192,0,0,1,1.057-.29c.293.11.481.44.6.927.235-.44.5-.721.811-.753s.626.171.953.545a1.207,1.207,0,0,1,.368-1.043,1.2,1.2,0,0,1,1.1.038.934.934,0,0,1,.837-1.573c-.408-.287-.658-.579-.652-.892s.243-.605.658-.886a1.371,1.371,0,0,0-1.923-1.544,1.206,1.206,0,0,1-.362-1.043,1.186,1.186,0,0,1-.956.536C214.448,240.7,214.185,240.43,213.956,239.987Zm1.758.217c1.388-1.55,2.958-6.4,4.548-11.889C217.788,233.463,215.717,238.124,215.714,240.2Zm4.545-11.889c.174-.353.351-.713.516-1.072-.061-.02-.122-.049-.183-.075C220.482,227.554,220.372,227.939,220.259,228.315Zm-3.079,12.9c1.947-.73,5.594-4.3,9.551-8.415C222.151,236.209,218.148,239.375,217.18,241.218Zm9.551-8.415c.29-.217.588-.435.884-.652-.041-.052-.087-.1-.122-.142C227.241,232.27,226.989,232.539,226.731,232.8ZM218,242.794c2.065.255,6.952-1.208,12.375-3.016C224.729,240.67,219.718,241.612,218,242.794Zm12.375-3.013c.319-.046.652-.1.976-.151-.012-.055-.026-.11-.041-.165Zm-12.378,4.788c1.709,1.193,6.715,2.164,12.346,3.079C224.938,245.815,220.062,244.323,217.994,244.569Zm12.349,3.079c.275.1.553.194.826.284a1.311,1.311,0,0,0,.035-.145C230.923,247.744,230.63,247.7,230.343,247.649Zm-13.183-1.506c.965,1.845,4.948,5.035,9.507,8.47C222.73,250.47,219.109,246.884,217.16,246.142Zm9.51,8.464c.171.18.348.365.519.548.029-.035.055-.061.087-.093C227.073,254.911,226.864,254.758,226.67,254.607ZM215.7,247.148c-.009,2.083,2.036,6.752,4.481,11.915C218.617,253.567,217.079,248.706,215.7,247.148Zm4.481,11.917c.061.217.125.44.183.663a1.078,1.078,0,0,1,.113-.041C220.378,259.479,220.277,259.265,220.178,259.065Zm-6.246-11.709c-.973,1.845-1.335,6.923-1.57,12.633C213.533,254.4,214.428,249.378,213.933,247.356Zm-1.57,12.633c-.049.217-.09.437-.136.66.041.009.072.009.113.014C212.345,260.441,212.357,260.209,212.363,259.989Zm-.084-13.27c-1.727,1.179-4.406,5.516-7.265,10.457C208.646,252.773,211.775,248.741,212.279,246.719Zm-7.265,10.457c-.154.183-.313.377-.469.559.038.023.07.041.11.07C204.77,257.6,204.895,257.385,205.013,257.176Zm6.092-11.787c-2.074.24-6.463,2.833-11.292,5.878C205.08,249.059,209.715,246.948,211.105,245.389Zm-11.295,5.883c-.249.1-.5.209-.762.319a1.186,1.186,0,0,0,.067.116C199.35,251.565,199.582,251.417,199.811,251.273Zm10.869-7.613c-1.944-.744-7.036-.487-12.731-.032C203.637,244.115,208.73,244.4,210.68,243.66Zm-12.731-.032c-.31-.029-.629-.058-.936-.084a1.514,1.514,0,0,0,0,.162C197.328,243.677,197.644,243.651,197.948,243.628Zm13.157-1.689c-1.37-1.561-5.993-3.7-11.243-5.941C204.669,239.068,209.043,241.687,211.105,241.939ZM199.863,236q-.452-.291-.913-.582c-.026.055-.055.11-.084.159C199.2,235.717,199.538,235.856,199.863,236Zm12.427,4.615c-.49-2.022-3.595-6.066-7.2-10.5C207.919,235.077,210.575,239.425,212.29,240.612Zm-7.2-10.5c-.194-.333-.382-.672-.576-1.011-.055.038-.113.075-.162.113C204.6,229.518,204.851,229.819,205.092,230.117Z" opacity="0.7" fill="url(#radial-gradient-2)"/>
                      <path id="SvgjsPath3947" d="M216.931,226.2c-.07-.009-.136-.02-.2-.029-.02.4-.046.8-.07,1.2C216.745,226.983,216.841,226.589,216.931,226.2Zm-.275,1.167c-1.28,5.568-2.28,10.57-1.822,12.6C215.845,238.15,216.308,233.075,216.656,227.368Zm-1.825,12.6c-.243.435-.51.7-.82.736s-.626-.185-.947-.565a.93.93,0,0,1-1.486.97.928.928,0,0,1-.857,1.553c.4.293.637.591.629.9s-.258.6-.669.875a1.373,1.373,0,0,0,1.889,1.585,1.208,1.208,0,0,1,.336,1.052c.339-.362.663-.568.976-.519s.562.327.782.776c.13-.484.327-.808.626-.913a1.2,1.2,0,0,1,1.052.322.935.935,0,0,1,1.217-1.3c-.322-.382-.487-.727-.4-1.028s.394-.521.866-.687c-.464-.185-.762-.42-.834-.724a.718.718,0,1,0-.626-1.266,1.207,1.207,0,0,1-.081-1.1,1.193,1.193,0,0,1-1.063.269C215.12,240.789,214.941,240.456,214.831,239.969Zm1.645.669c1.741-1.141,4.51-5.42,7.468-10.307C220.222,234.662,217.018,238.625,216.476,240.638Zm7.468-10.31c.258-.3.521-.6.776-.9-.055-.038-.1-.081-.159-.122C224.355,229.651,224.15,230,223.944,230.329Zm-6.315,11.665c2.071-.2,6.518-2.706,11.4-5.657C223.724,238.443,219.04,240.465,217.629,241.994Zm11.4-5.66q.508-.2,1.025-.4c-.029-.061-.061-.116-.081-.171C229.662,235.954,229.35,236.148,229.031,236.334Zm-11.019,7.4c1.929.782,7.028.632,12.731.293C225.062,243.419,219.978,243.031,218.011,243.729Zm12.731.29c.324.038.655.072.982.107,0-.058,0-.113.006-.168Zm-13.192,1.425c1.338,1.6,5.927,3.827,11.13,6.167C223.932,248.44,219.61,245.74,217.551,245.444Zm11.127,6.167c.24.165.484.33.724.487.026-.043.049-.087.072-.13C229.213,251.855,228.941,251.733,228.677,251.612Zm-12.343-4.864c.452,2.031,3.476,6.141,6.993,10.643C220.6,252.368,218.026,247.964,216.334,246.748Zm6.993,10.634c.122.217.24.443.362.663.035-.026.07-.046.107-.07Zm-8.664-10.043c-.545,2.007.22,7.048,1.246,12.668C215.819,254.294,215.593,249.2,214.663,247.339Zm1.243,12.668c0,.226.009.458.009.689a.828.828,0,0,1,.119-.012C215.992,260.461,215.949,260.23,215.905,260.007Zm-3-12.926c-1.419,1.53-3.082,6.341-4.786,11.8C210.694,253.781,212.861,249.164,212.9,247.081Zm-4.788,11.8c-.1.2-.2.4-.3.6.035.017.067.026.1.043C207.983,259.311,208.052,259.088,208.116,258.877Zm3.352-12.839c-1.97.692-5.684,4.189-9.725,8.221C206.4,250.945,210.459,247.86,211.467,246.038Zm-9.722,8.221c-.194.136-.4.284-.594.42.029.032.058.058.084.093C201.4,254.6,201.575,254.433,201.746,254.259Zm8.934-9.812c-2.065-.3-6.973,1.066-12.43,2.758C203.913,246.435,208.933,245.595,210.68,244.448Zm-12.43,2.764c-.267.038-.542.07-.82.113a.923.923,0,0,0,.038.127C197.731,247.376,197.992,247.29,198.249,247.211Zm12.468-4.539c-1.686-1.225-6.671-2.294-12.288-3.328C203.8,241.287,208.643,242.878,210.717,242.672Zm-12.288-3.328-.884-.324c-.014.055-.032.107-.043.156C197.818,239.231,198.128,239.288,198.429,239.344Zm13.149,1.773c-.921-1.863-4.832-5.124-9.325-8.65C206.1,236.681,209.648,240.343,211.578,241.116Zm-9.328-8.647-.727-.8c-.041.046-.084.09-.122.133C201.688,232.026,201.975,232.246,202.25,232.469Zm10.814,7.674c.049-2.08-1.9-6.79-4.241-12C210.271,233.666,211.714,238.553,213.064,240.143Zm-4.241-12c-.1-.371-.194-.75-.293-1.127-.061.02-.125.043-.183.067C208.5,227.438,208.666,227.794,208.823,228.144Z" opacity="0.4" fill="url(#radial-gradient-3)"/>
                      <path id="SvgjsPath3951" d="M221.183,243.332a6.818,6.818,0,1,1-6.816-6.819A6.814,6.814,0,0,1,221.183,243.332Z" fill="#4d3623"/>
                      <path id="SvgjsPath3952" d="M221.183,243.332a6.818,6.818,0,1,1-6.816-6.819A6.814,6.814,0,0,1,221.183,243.332Z" opacity="0.9"/>
                      <path id="SvgjsPath3953" d="M204.854,251.293a2.839,2.839,0,1,1-.776,3.943,2.842,2.842,0,0,1,.776-3.943Z" opacity="0.5" fill="url(#linear-gradient-3)"/>
                      <path id="SvgjsPath3957" d="M219.752,242.382c-.727,1.083-2.807.959-4.652-.278s-2.752-3.123-2.028-4.2v0c.724-1.083,2.807-.959,4.649.281s2.755,3.117,2.031,4.2Z" opacity="0.5" fill="url(#linear-gradient-4)"/>
                      <path id="SvgjsPath3961" d="M228.026,239.488c-1.645,2.529-5.9,2.68-9.487.339s-5.168-6.286-3.52-8.815,5.9-2.677,9.487-.339,5.165,6.292,3.52,8.815Z" opacity="0.75" fill="url(#linear-gradient-5)"/>
                    </g>
                  </g>
                </g>
                <g id="svga-group-eyesfront-left">
                  <path id="SvgjsPath3910" d="M154.383,240.436c2.344,31.572,33.71,68.316,59.4,64.414,30.411.307,60.439-22.792,60.439-64.613s-14.736-76.847-61.2-76.847C179.71,163.386,154.383,198.614,154.383,240.436Zm24.5-1.382c-1.466-6.619,15.037-11.509,36.821-8.838s36.9,16,34.912,22.723c-1.1,3.725-30.819,9.4-41.288,8.247C198.716,260.012,182.424,255.036,178.884,239.054Z" fill="#93614a"/>
                  <path id="SvgjsPath3911" d="M209.33,261.186c10.469,1.153,40.188-4.522,41.288-8.247,1.99-6.721-13.134-20.049-34.912-22.723-18.713-2.294-33.5,1-36.372,6.164,2.6-18.54,22.305-33.015,46.311-33.122,25.814-.107,46.778,16.442,46.847,36.978s-20.814,37.259-46.624,37.375-46.781-16.442-46.85-36.975c0-.3.046-.6.055-.907C182.925,255.16,198.869,260.03,209.33,261.186Z" fill="url(#radial-gradient-4)"/>
                  <path id="SvgjsPath3916" d="M178.884,239.054c-1.466-6.619,15.037-11.509,36.821-8.838s36.9,16,34.912,22.723c-1.1,3.725-30.819,9.4-41.288,8.247C198.716,260.012,182.424,255.036,178.884,239.054Z" fill="url(#radial-gradient-5)"/>
                  <path id="SvgjsPath3920" d="M180.031,224.263c12.19-5.73,27.085-6.257,40.086-2.911,6.964,1.625,14.383,3.722,20.46,7.642a57.024,57.024,0,0,1,14.49,12.138,51.536,51.536,0,0,0-13.392-12.369,71.256,71.256,0,0,0-21.332-8.447C207.059,217.053,192.181,217.794,180.031,224.263Z" fill="#652e15"/>
                  <path id="SvgjsPath3921" d="M181.83,226.01a78.726,78.726,0,0,1,15.805-3.088,115.375,115.375,0,0,1,19.51,1.228c9.774,1.761,26.8,7.193,33.829,20.811,2.161,4.186.214,7.115-.356,7.749.869-7.028-14.015-19.542-34.912-22.027-21.784-2.59-38.287,2.152-36.821,8.569,3.54,15.492,19.832,20.315,30.446,21.451,11.874,1.272,33.846-4.458,36.749-5.078-5.791,2.923-21.8,6.069-28.293,6.671-2.155.2-6.489.3-8.65.246-17.233-.458-29.458-9.2-33.977-21.031C172.256,233.9,175.431,228.564,181.83,226.01Z" fill="#2c1630"/>
                </g>
              </g>
            </g>
            <g id="svga-group-eyes-right-move">
              <g id="svga-group-eyes-right">
                <g id="svga-group-eyesback-right">
                  <path id="SvgjsPath3895" d="M399.323,239.054c1.466-6.619-15.037-11.509-36.821-8.838s-36.9,16-34.912,22.723c1.1,3.725,30.819,9.4,41.288,8.247C379.491,260.012,395.783,255.036,399.323,239.054Z" fill="url(#radial-gradient-6)"/>
                </g>
                <g id="svga-group-eyesiriswrapper-right" transform="translate(-0.724 0.724)">
                  <g id="svga-group-eyesiriscontrol-right">
                    <g id="svga-group-eyesiris-right">
                      <path id="SvgjsPath3965" d="M382.38,243.332a17.381,17.381,0,1,1-34.762,0h0a17.381,17.381,0,1,1,34.762,0Z" fill="#4d3623"/>
                      <path id="SvgjsPath3966" d="M363.052,226.143l-.206.026c.084.391.168.785.246,1.176C363.075,226.948,363.067,226.543,363.052,226.143Zm.038,1.2c.2,5.713.536,10.8,1.5,12.642C365.094,237.968,364.231,232.944,363.09,227.342Zm1.5,12.645c-.122.484-.313.814-.6.924a1.219,1.219,0,0,1-1.063-.3,1.206,1.206,0,0,1-.1,1.1,1.186,1.186,0,0,1-1.078.226,1.247,1.247,0,0,1,.423,1.023c-.081.3-.388.527-.849.7.458.183.768.408.84.71a1.226,1.226,0,0,1-.42,1.02,1.187,1.187,0,0,1,1.072.238,1.222,1.222,0,0,1,.1,1.1,1.193,1.193,0,0,1,1.057-.29c.3.11.481.44.6.927.232-.44.5-.721.808-.753s.629.171.953.545a1.208,1.208,0,0,1,.371-1.043,1.2,1.2,0,0,1,1.1.038,1.245,1.245,0,0,1-.162-1.092,1.225,1.225,0,0,1,1-.481c-.408-.287-.66-.579-.652-.892s.243-.605.658-.886a1.373,1.373,0,0,0-1.926-1.544,1.215,1.215,0,0,1-.362-1.043,1.182,1.182,0,0,1-.956.536C365.083,240.7,364.819,240.43,364.587,239.987Zm1.761.217c1.388-1.55,2.958-6.4,4.545-11.889C368.423,233.463,366.354,238.124,366.349,240.2Zm4.545-11.889c.174-.353.351-.713.519-1.072-.061-.02-.122-.049-.183-.075C371.117,227.554,371.007,227.939,370.894,228.315Zm-3.079,12.9c1.95-.73,5.6-4.3,9.554-8.415C372.785,236.209,368.785,239.375,367.814,241.218Zm9.554-8.415c.29-.217.585-.435.884-.652-.043-.052-.087-.1-.122-.142C377.875,232.27,377.623,232.539,377.368,232.8Zm-8.734,9.991c2.065.255,6.949-1.208,12.372-3.016C375.364,240.67,370.352,241.612,368.634,242.794Zm12.372-3.013c.319-.046.652-.1.976-.151-.015-.055-.026-.11-.041-.165Zm-12.378,4.788c1.712,1.193,6.715,2.164,12.349,3.079C375.572,245.815,370.7,244.323,368.628,244.569Zm12.349,3.079c.275.1.55.194.826.284.014-.049.026-.1.038-.145C381.557,247.744,381.261,247.7,380.978,247.649Zm-13.183-1.506c.962,1.845,4.948,5.035,9.507,8.47C373.368,250.47,369.744,246.884,367.794,246.142Zm9.51,8.464c.171.18.345.365.516.548.029-.035.058-.061.09-.093C377.707,254.911,377.5,254.758,377.3,254.607Zm-10.97-7.459c-.009,2.083,2.034,6.752,4.481,11.915C369.251,253.567,367.713,248.706,366.334,247.148Zm4.481,11.917c.061.217.125.44.182.663.043-.017.075-.029.113-.041C371.013,259.479,370.911,259.265,370.815,259.065Zm-6.248-11.709c-.973,1.845-1.335,6.923-1.57,12.633C364.167,254.4,365.062,249.378,364.567,247.356ZM363,259.989c-.049.217-.09.437-.136.66.041.009.07.009.113.014C362.98,260.441,362.991,260.209,363,259.989Zm-.087-13.27c-1.727,1.179-4.406,5.516-7.265,10.457C359.28,252.773,362.406,248.741,362.91,246.719Zm-7.265,10.457c-.151.183-.31.377-.466.559a1.113,1.113,0,0,1,.107.07C355.4,257.6,355.529,257.385,355.645,257.176Zm6.092-11.787c-2.074.24-6.46,2.833-11.289,5.878C355.714,249.059,360.349,246.948,361.737,245.389Zm-11.289,5.883c-.252.1-.507.209-.762.319a.791.791,0,0,0,.067.116C349.984,251.565,350.216,251.417,350.448,251.273Zm10.869-7.613c-1.947-.744-7.039-.487-12.734-.032C354.275,244.115,359.364,244.4,361.317,243.66Zm-12.734-.032c-.307-.029-.629-.058-.933-.084a1.016,1.016,0,0,0,0,.162C347.963,243.677,348.278,243.651,348.582,243.628Zm13.16-1.689c-1.373-1.561-5.993-3.7-11.245-5.941C355.3,239.068,359.677,241.687,361.743,241.939ZM350.5,236c-.3-.194-.608-.388-.913-.582-.026.055-.055.11-.081.159C349.837,235.717,350.176,235.856,350.5,236Zm12.427,4.615c-.49-2.022-3.595-6.066-7.2-10.5C358.553,235.077,361.21,239.425,362.925,240.612Zm-7.2-10.5c-.194-.333-.385-.672-.574-1.011-.055.038-.113.075-.165.113C355.234,229.518,355.486,229.819,355.726,230.117Z" opacity="0.7" fill="url(#radial-gradient-7)"/>
                      <path id="SvgjsPath3970" d="M367.565,226.2c-.07-.009-.136-.02-.2-.029-.023.4-.046.8-.07,1.2C367.377,226.983,367.473,226.589,367.565,226.2Zm-.275,1.167c-1.283,5.568-2.28,10.57-1.825,12.6C366.479,238.15,366.942,233.075,367.29,227.368Zm-1.825,12.6c-.243.435-.513.7-.82.736s-.626-.185-.947-.565a.93.93,0,0,1-1.486.97,1.228,1.228,0,0,1,.142,1.095,1.215,1.215,0,0,1-1,.458c.4.293.637.591.629.9s-.258.6-.666.875a1.374,1.374,0,0,0,1.892,1.585,1.2,1.2,0,0,1,.333,1.052c.339-.362.663-.568.976-.519s.562.327.782.776c.133-.484.327-.808.626-.913a1.2,1.2,0,0,1,1.052.322,1.23,1.23,0,0,1,.13-1.095,1.216,1.216,0,0,1,1.086-.209c-.319-.382-.487-.727-.4-1.028s.394-.521.866-.687c-.461-.185-.762-.42-.834-.724a1.234,1.234,0,0,1,.446-1.011,1.374,1.374,0,0,0-2.216-1.083C365.758,240.789,365.572,240.456,365.465,239.969Zm1.645.669c1.741-1.141,4.51-5.42,7.468-10.307C370.856,234.662,367.652,238.625,367.11,240.638Zm7.468-10.31c.258-.3.521-.6.779-.9-.058-.038-.107-.081-.162-.122C374.99,229.651,374.784,230,374.578,230.329Zm-6.315,11.665c2.071-.2,6.515-2.706,11.4-5.657C374.358,238.443,369.674,240.465,368.263,241.994Zm11.4-5.66q.5-.2,1.025-.4c-.029-.061-.061-.116-.081-.171C380.3,235.954,379.984,236.148,379.665,236.334Zm-11.02,7.4c1.929.782,7.028.632,12.734.293C375.694,243.419,370.613,243.031,368.646,243.729Zm12.732.29c.322.038.655.072.982.107,0-.058,0-.113.006-.168Zm-13.192,1.425c1.341,1.6,5.927,3.827,11.13,6.167C374.567,248.44,370.245,245.74,368.185,245.444Zm11.127,6.167c.238.165.484.33.724.487a.95.95,0,0,0,.07-.13C379.848,251.855,379.575,251.733,379.312,251.612Zm-12.34-4.864c.449,2.031,3.473,6.141,6.99,10.643C371.23,252.368,368.663,247.964,366.971,246.748Zm6.993,10.634c.119.217.238.443.359.663a.972.972,0,0,1,.107-.07C374.274,257.779,374.112,257.576,373.964,257.382ZM365.3,247.339c-.545,2.007.22,7.048,1.246,12.668C366.453,254.294,366.227,249.2,365.3,247.339Zm1.243,12.668c0,.226.009.458.009.689a.829.829,0,0,1,.116-.012C366.627,260.461,366.583,260.23,366.54,260.007Zm-3-12.926c-1.417,1.53-3.082,6.341-4.786,11.8C361.328,253.781,363.492,249.164,363.536,247.081Zm-4.786,11.8c-.1.2-.2.4-.3.6.035.017.064.026.1.043C358.617,259.311,358.687,259.088,358.75,258.877Zm3.352-12.839c-1.97.692-5.681,4.189-9.722,8.221C357.032,250.945,361.094,247.86,362.1,246.038Zm-9.722,8.221c-.194.136-.4.284-.594.42.029.032.058.058.084.093C352.035,254.6,352.212,254.433,352.38,254.259Zm8.934-9.812c-2.065-.3-6.97,1.066-12.427,2.758C354.547,246.435,359.57,245.595,361.314,244.448Zm-12.427,2.764c-.269.038-.545.07-.82.113.012.043.023.087.038.127C348.365,247.376,348.626,247.29,348.887,247.211Zm12.465-4.539c-1.686-1.225-6.671-2.294-12.288-3.328C354.434,241.287,359.277,242.878,361.352,242.672Zm-12.288-3.328-.884-.324q-.026.083-.043.156C348.449,239.231,348.762,239.288,349.063,239.344Zm13.149,1.773c-.921-1.863-4.835-5.124-9.328-8.65C356.734,236.681,360.283,240.343,362.212,241.116Zm-9.328-8.647-.727-.8c-.043.046-.081.09-.125.133C352.319,232.026,352.612,232.246,352.884,232.469Zm10.814,7.674c.049-2.08-1.9-6.79-4.241-12C360.908,233.666,362.348,238.553,363.7,240.143Zm-4.241-12c-.1-.371-.194-.75-.3-1.127-.061.02-.125.043-.183.067C359.138,227.438,359.3,227.794,359.457,228.144Z" opacity="0.4" fill="url(#radial-gradient-8)"/>
                      <path id="SvgjsPath3974" d="M371.818,243.332A6.818,6.818,0,1,1,365,236.513,6.816,6.816,0,0,1,371.818,243.332Z" fill="#4d3623"/>
                      <path id="SvgjsPath3975" d="M371.818,243.332A6.818,6.818,0,1,1,365,236.513,6.816,6.816,0,0,1,371.818,243.332Z" opacity="0.9"/>
                      <path id="SvgjsPath3976" d="M355.491,251.293a2.839,2.839,0,1,1-.776,3.943,2.839,2.839,0,0,1,.776-3.943Z" opacity="0.5" fill="url(#linear-gradient-6)"/>
                      <path id="SvgjsPath3980" d="M370.384,242.382c-.727,1.083-2.807.959-4.649-.278s-2.752-3.123-2.028-4.2l0,0c.724-1.083,2.807-.959,4.649.281s2.752,3.117,2.025,4.2Z" opacity="0.5" fill="url(#linear-gradient-7)"/>
                      <path id="SvgjsPath3984" d="M378.663,239.488c-1.648,2.529-5.9,2.68-9.49.339s-5.168-6.286-3.52-8.815,5.9-2.677,9.487-.339,5.165,6.292,3.523,8.815Z" opacity="0.75" fill="url(#linear-gradient-8)"/>
                    </g>
                  </g>
                </g>
                <g id="svga-group-eyesfront-right">
                  <path id="SvgjsPath3930" d="M365.181,163.386c-46.465,0-61.2,35.025-61.2,76.847s30.028,64.923,60.439,64.613c25.692,3.9,57.059-32.841,59.4-64.414C423.824,198.614,398.495,163.386,365.181,163.386Zm3.7,97.8c-10.469,1.153-40.188-4.522-41.288-8.247-1.99-6.721,13.134-20.049,34.912-22.723s38.287,2.222,36.821,8.838C395.783,255.036,379.491,260.012,368.878,261.186Z" fill="#93614a"/>
                  <path id="SvgjsPath3931" d="M368.878,261.186c-10.469,1.153-40.188-4.522-41.288-8.247-1.99-6.721,13.134-20.049,34.912-22.723,18.713-2.294,33.5,1,36.372,6.164-2.6-18.54-22.305-33.015-46.311-33.122-25.814-.107-46.778,16.442-46.847,36.978s20.814,37.259,46.624,37.375,46.781-16.442,46.85-36.975c0-.3-.046-.6-.055-.907C395.279,255.16,379.335,260.03,368.878,261.186Z" fill="url(#radial-gradient-9)"/>
                  <path id="SvgjsPath3936" d="M399.323,239.054c1.466-6.619-15.037-11.509-36.821-8.838s-36.9,16-34.912,22.723c1.1,3.725,30.819,9.4,41.288,8.247C379.491,260.012,395.783,255.036,399.323,239.054Z" fill="url(#radial-gradient-10)"/>
                  <path id="SvgjsPath3940" d="M398.173,224.263c-12.19-5.73-27.085-6.257-40.086-2.911-6.964,1.625-14.383,3.722-20.46,7.642a57.024,57.024,0,0,0-14.49,12.138,51.536,51.536,0,0,1,13.392-12.369,71.256,71.256,0,0,1,21.332-8.447C371.149,217.053,386.027,217.794,398.173,224.263Z" fill="#652e15"/>
                  <path id="SvgjsPath3941" d="M396.377,226.01a78.726,78.726,0,0,0-15.805-3.088,115.375,115.375,0,0,0-19.51,1.228c-9.774,1.761-26.8,7.193-33.829,20.811-2.161,4.186-.214,7.115.356,7.749-.869-7.028,14.015-19.542,34.912-22.027,21.784-2.59,38.287,2.152,36.821,8.569-3.54,15.492-19.832,20.315-30.446,21.451-11.874,1.272-33.846-4.458-36.749-5.078,5.791,2.923,21.8,6.069,28.293,6.671,2.155.2,6.489.3,8.65.246,17.233-.458,29.458-9.2,33.977-21.031C405.951,233.9,402.776,228.564,396.377,226.01Z" fill="#2c1630"/>
                </g>
              </g>
            </g>
            <g id="svga-group-facehighlight-single">
              <path id="SvgjsPath2903" d="M408.451,330.162a118.771,118.771,0,0,1-237.542.362C170.808,265,223.9,211.569,289.5,211.465A118.9,118.9,0,0,1,408.451,330.162Z" fill="url(#radial-gradient-11)"/>
              <path id="SvgjsPath2907" d="M398.312,156.425A108.631,108.631,0,1,1,289.684,47.795,108.629,108.629,0,0,1,398.312,156.425Z" fill="url(#radial-gradient-12)"/>
            </g>
            <g id="svga-group-eyebrows-left-move">
              <g id="svga-group-eyebrows-left-rotate">
                <g id="svga-group-eyebrows-left">
                  <path id="SvgjsPath4010" d="M156.428,214.912c28.835-28.893,48.554-17.135,88.611-9.455,2.448.469,18.308,4.458,15.382,10.049-1.4,2.677-5.9,2.358-8.409,2.312C212.36,217.076,193.079,188.864,156.428,214.912Z" fill="#2a232b"/>
                </g>
              </g>
            </g>
            <g id="svga-group-eyebrows-right-move">
              <g id="svga-group-eyebrows-right-rotate">
                <g id="svga-group-eyebrows-right">
                  <path id="SvgjsPath4011" d="M422.935,214.912c-28.832-28.893-48.554-17.135-88.611-9.455-2.451.469-18.308,4.458-15.385,10.049,1.4,2.677,5.9,2.358,8.409,2.312C367,217.076,386.285,188.864,422.935,214.912Z" fill="#2a232b"/>
                </g>
              </g>
            </g>
            <g id="svga-group-nose-single-move">
              <g id="svga-group-nose-single">
                <path id="SvgjsPath3579" d="M263.943,334.579c-2.543,5.979,17.19,12.433,24.678,12.83,8.111.426,30.84-8.4,26.987-14.461-4.053-6.359-19.244-.829-25.8-.829C283.285,332.117,267.35,326.6,263.943,334.579Z" fill="#844e35"/>
                <path id="SvgjsPath3580" d="M295.061,339.1c-.666-2.2,5.434-4.589,7.7-4.907,3.189-.464,9.733,2.323,9.148,4.612-.533,2.022-6.222-1.544-8.285-1.243C301.495,337.867,295.692,341.155,295.061,339.1Zm-19.939-.716c2.8,0,6.964,1.8,7.729.214.913-1.9-6.2-4.232-8.285-3.974-1.727.2-7.917,3.809-7.065,5.327C268.294,341.34,271.426,338.38,275.122,338.38Z" fill="#652e15"/>
                <path id="SvgjsPath3581" d="M289.939,324.44c1.758,0,5.046-2.144,5.191-6.46.582-17.4-2.769-69.04-5.191-68.857-2.259.171-6.567,51.091-5.643,68.857C284.525,322.332,287.955,324.44,289.939,324.44Z" fill="#b28e7d" opacity="0.2"/>
              </g>
            </g>
            <g id="svga-group-beardwrap">
              <g id="svga-group-beard-single-move">
                <g id="svga-group-beard-single">
                  <path id="SvgjsPath4160" d="M289.682,52.519Z" fill="#2a232b"/>
                </g>
              </g>
            </g>
            <g id="svga-group-mustache-single-move">
              <g id="svga-group-mustache-single">
                <path id="SvgjsPath4133" d="M289.682,52.519Z" fill="#2a232b"/>
              </g>
            </g>
            <g id="svga-group-hair-front">
              <path id="SvgjsPath4117" d="M476.1,146.987c-.478-9.536-4.421-23.945-7.2-32.748-3.224,5.547-3.546,5.547-5.437,8.479-.608-3.511-4.742-40.4-18.487-61.412-1.576,5.539.162,11.891-3.152,16.127-7.43-15.475-18.322-42.189-42.963-59.784,2.52,6.587,1.191,8.441,1.753,10.672C393.33,17.81,384.651,12.271,370.749,4.29a58.434,58.434,0,0,0,.472,7.981C366.128,6.4,354.478-10.046,339.533-19.5c.7,2.538-.727,8.042-.217,10.762-4.9-10.426-19.9-30.625-34.631-28.166-4.2-4.169-7.7-11.257-11.483-15.979-2.375,12.54-22.117,40.072-42.514,52.441.672-5.185-.3-9.762-1.573-15.034-3.679,7.561-15.623,22.213-24.3,25.64.872-3.8.2-11.028.2-11.028-4.6,6.04-8.583,9.391-14.658,14.727.075-3.4,1.808-10.55,2.836-14.134C203.64,3.96,194.165,15.2,187.215,23.345c-.756-4.646.785-14.38,2.355-16.521-34.165,22.6-50.329,40.752-65.9,84.454-1.017-2.178-1.718-4.841-2.048-12.068-19.481,31.682-30.532,53.637-10.02,132.706a44.53,44.53,0,0,1-9.791-7.564c4.9,32.96,12.068,43.89,36.729,72.018,12.132-14.165,5.617-39.084,3.63-50.92.287-17.879,5.269-14.782,6-22.882.33-3.635,2.248-9.754,1.909-13.389-1.367-14.554,3.279-40.451,10.066-57.493,10.405-15.286,22.343-25.559,37.8-34.846,24.4-4.838,47.082,5.229,54.017,7.025,12.532,3.244,62.841,3.244,75.378,0,8.676-2.245,32.94-12.439,58.012-5.782,18.925,10.825,29.487,20.979,37.259,40.645,4.959,15.643,7.778,35.1,6.6,47.551-.339,3.635,1.3,12.65,1.631,16.289.3,3.323,4.542,10.686,5.336,13.925,3.253,13.36-3.586,49-3.586,49a40.7,40.7,0,0,0,1.871,14.7c17.946-11.2,19.16-17.821,21.732-26.257,2.12-6.978,13.4-33.371,13.742-38.209a37.743,37.743,0,0,1-9.475,6.842c2.051-7.984,11.448-23.059,13.267-31.766C476.932,175.463,476.888,162.894,476.1,146.987Z" fill="#1b141c"/>
              <path id="SvgjsPath4118" d="M476.1,146.987c-.478-9.536-4.421-23.945-7.2-32.748-3.224,5.547-3.546,5.547-5.437,8.479-.608-3.511-4.742-40.4-18.487-61.412-1.576,5.539.162,11.891-3.152,16.127-7.43-15.475-18.322-42.189-42.963-59.784,2.52,6.587,1.191,8.441,1.753,10.672C393.33,17.81,384.651,12.271,370.749,4.29a58.434,58.434,0,0,0,.472,7.981C366.128,6.4,354.478-10.046,339.533-19.5c.7,2.538-.727,8.042-.217,10.762-4.9-10.426-19.9-30.625-34.631-28.166-4.2-4.169-7.7-11.257-11.483-15.979-2.375,12.54-22.117,40.072-42.514,52.441.672-5.185-.3-9.762-1.573-15.034-3.679,7.561-15.623,22.213-24.3,25.64.872-3.8.2-11.028.2-11.028-4.6,6.04-8.583,9.391-14.658,14.727.075-3.4,1.808-10.55,2.836-14.134C203.64,3.96,194.165,15.2,187.215,23.345c-.756-4.646.785-14.38,2.355-16.521-34.165,22.6-50.329,40.752-65.9,84.454-1.017-2.178-1.718-4.841-2.048-12.068-19.481,31.682-30.532,53.637-10.02,132.706a44.53,44.53,0,0,1-9.791-7.564c4.768,32.042,11.721,43.31,34.756,69.749-11.028-18.624-24.432-34.565-29.382-56.841,5.794,2.9,14.484,8.69,20.278,11.587-14.484-40.555-28.968-92.7-8.69-130.357,2.9,11.587,10.243,25.307,16.037,34-12.668-34.4,15.828-77.449,36.106-103.521,0,14.484-2.9,31.865,2.9,46.349,0-20.278,14.484-31.865,23.175-49.246,0,11.587-2.9,20.278,2.9,31.865,2.9-14.484,5.794-28.968,14.484-40.555,5.794,11.587,2.9,23.175,8.69,34.762,0-17.381,8.69-26.071,11.587-40.555,6.382,14.684,11.587,17.381,14.484,28.968-2.9-31.865,41.143-34.562,44.04-66.427,2.9,20.278,8.1,34.562,5.206,57.736C309.959,17.381,315.753,0,318.65-20.278,338.927-2.9,333.134,20.278,341.824,40.555c5.794-11.587,5.794-26.071,8.69-40.555C362.1,20.278,373.689,43.452,382.38,66.627c2.9-14.484,8.311-21.042,0-43.452C402.657,37.659,417.141,63.73,414.245,89.8c2.9-14.484,5.794-28.968,5.794-43.452,2.9,31.865,23.175,60.833,20.278,95.595C446.11,127.46,451.9,112.976,451.9,95.595c2.648,29.127,7.674,60.671-.324,90.216,4.444-10.991,11.912-21.216,11.912-35.176,8.69,31.865-20.278,57.936-17.381,89.8,0-4.939,8.4-7.778,10.883-12.1.235-.8.466-1.59.7-2.387a4.758,4.758,0,0,1-.7,2.387c-4.6,15.591-8.508,31.158-14.415,46.251,10.289-8.018,11.506-13.725,13.615-20.648,2.12-6.978,13.4-33.371,13.743-38.209a37.743,37.743,0,0,1-9.475,6.842c2.051-7.984,11.448-23.059,13.267-31.766C476.932,175.463,476.888,162.894,476.1,146.987Z" fill="#2a232b"/>
              <path id="SvgjsPath4119" d="M468.314,108.066a51.564,51.564,0,0,1-3.268,10.226c-1.393-16.24-8.563-42.569-21.309-60.891a132,132,0,0,1-1.686,15.5c-3.433-12.372-18.771-40.512-45.677-58.661.339,1.014.7,2.028,1.066,3.042v.029c.779,2.265,1.44,4.768,2.17,7.271-11.086-13.783-21.1-16.138-30.758-22.8.492,2.848.785,5.7.814,5.91-11.72-15.909-20.373-22.268-31.12-28.3.107,1.338.423,7.031.356,10.51-7.045-14.852-13.444-26.031-34.4-28.093-1.5-2.9-6.7-11.862-11.99-17.323-6.663,23.389-24.953,39.707-41.007,53.5a70.317,70.317,0,0,0-2.08-15.9C242.9-6.283,237.9,0,225.491,9.458a126.713,126.713,0,0,0,.281-12.949,96.845,96.845,0,0,1-14.829,15.672s3.372-14.191,3.4-14.339c-.452.232-.907.435-1.379.724-2.81.707-15.04,8.549-25.814,22.624,1.049-9.916,3.033-13.557,3.737-16.454-32.16,18.43-57.675,47.137-67.774,83.834-.53-5.156-.762-9.531-.762-11.153-14.817,18.6-21.825,37.717-22.8,42.525-5.956,26.862,1.327,71.653,10.168,90.5-5.553-4.415-.533.012-9.27-7.908,0,13.641,2.9,23.241,7.894,35.022,7.062,16.648,17.033,27.088,30.2,38.817-13.574-16.6-32.126-39.692-35.787-69.9,2.454,2.413,3.882,3.369,8.091,6.576h.029v.029a19.019,19.019,0,0,0,2.946,1.941c-21.726-78.7-5.985-109.778,7.274-134.383.359,11.442,2.372,16.538,6.211,22.885-1.964-5.052-1.718-3.4-3.233-9.531C134.56,60.523,159.3,33.235,185.92,10.617c.7-.579,1.373-1.13,2.077-1.651a56.242,56.242,0,0,0-2.387,14.513,43.951,43.951,0,0,0-7.752,19.206,45.089,45.089,0,0,1,7.781-15.527v-.029C193.168,15.5,206.667,4.134,212.493.188c-3.792,12.688-3.951,17.682-3.734,27.056a116.265,116.265,0,0,1,1.767-12.688A76.686,76.686,0,0,0,224.628.217c-.316,6.666.084,15.892-3.682,24.13a27.875,27.875,0,0,0,4.438-13.615C229.176,8.4,238.3,4.484,248.865-13.6c2.286,15.475.582,24.012-1.715,30.214A32.389,32.389,0,0,0,251.53-.159c19.591-13.508,33.331-25.4,41.236-48.753.22-.9.452-1.767.614-2.636,4.4,6.324,22.027,34.472,18.487,41.975,4.481-4.548-3.543-21.6-6.686-27.433,22.146,5.545,24.217,11.7,39.316,42.931-1.75-5.817-3.23-10.915-4.232-13.76A52.57,52.57,0,0,0,340-18.554c15.139,11.692,40.086,39.292,40.086,60.283,1.249-7.859.7-14.751-5.617-26.448a46.25,46.25,0,0,0-2.422-4.027c-.206-1.819-.976-5.562-.976-5.562,5.22,5.516,16.671,6.758,30.249,27.172,1.8,2.456,10.11,18.522,13.4,24.246-6.88-19.177-8.809-22.224-11.234-26.738a61.919,61.919,0,0,0-2.868-9.965c30.527,30.112,41.969,49.072,45.952,91.8.7-11.437.348-23.163-2.946-34.067A114.471,114.471,0,0,0,445.7,65.135a240.511,240.511,0,0,1,14.218,44.611c3.494,17.558,3.447,28.285,2.581,40.121,2.969-12.271,3.213-23.2,2.784-27.491a39.5,39.5,0,0,0,2.584-5.156c5.634,30.593,14.131,55.749-10.533,108.689,2.816-1.5,7.931-4.319,10.956-7.937,0,0-8.63,20.579-13.259,33.777-8.073,20.1-7.155,17.946-20.565,28.447,14.82-6.141,18.908-14.719,23.768-27.23,9.16-26.7,8.291-17.839,15.223-43.771a65.562,65.562,0,0,1-9.641,10.66C490.729,170.924,476.373,137.5,468.314,108.066Z"/>
            </g>
            <g id="svga-group-glasses-single-move">
              <g id="svga-group-glasses-single">
                <path id="SvgjsPath4033" d="M289.682,52.519Z" fill="#26120b"/>
              </g>
            </g>
          </g>
        </g>
      </g>
    </g>
  </g>
</svg>
